<?xml version="1.0" standalone="no"?>
<!DOCTYPE svg PUBLIC "-//W3C//DTD SVG 20010904//EN"
 "http://www.w3.org/TR/2001/REC-SVG-20010904/DTD/svg10.dtd">
<svg version="1.0" xmlns="http://www.w3.org/2000/svg"
 width="343.000000pt" height="343.000000pt" viewBox="0 0 343.000000 343.000000"
 preserveAspectRatio="xMidYMid meet">
<metadata>
Created by potrace 1.14, written by Peter Selinger 2001-2017
</metadata>
<g transform="translate(0.000000,343.000000) scale(0.100000,-0.100000)"
fill="#000000" stroke="none">
<path d="M1710 2939 c-52 -26 -99 -44 -104 -41 -5 3 -6 0 -2 -6 4 -7 2 -13 -3
-13 -22 -3 -63 -19 -71 -28 -3 -3 -38 -21 -77 -40 -40 -19 -73 -38 -73 -43 0
-4 -6 -5 -14 -2 -7 3 -16 -2 -19 -10 -4 -9 -13 -13 -22 -10 -8 3 -15 2 -15 -3
0 -12 -50 -37 -67 -34 -7 1 -13 -2 -13 -7 0 -9 -39 -30 -51 -28 -4 0 -16 -7
-26 -17 -11 -9 -23 -14 -26 -10 -4 3 -7 1 -7 -6 0 -7 -4 -10 -9 -6 -5 3 -12 1
-16 -5 -4 -6 -10 -8 -15 -5 -4 3 -11 -2 -14 -11 -4 -9 -9 -14 -13 -11 -3 4
-19 -3 -34 -14 -16 -11 -29 -18 -29 -15 0 4 -18 -5 -40 -19 -22 -14 -40 -22
-40 -19 0 4 -7 1 -15 -6 -15 -13 -108 -58 -123 -60 -4 -1 -15 -9 -24 -17 -10
-9 -18 -13 -18 -9 0 4 -14 -2 -30 -14 -17 -12 -30 -18 -30 -15 0 3 -13 -3 -29
-14 -15 -11 -31 -18 -35 -14 -3 3 -6 1 -6 -5 0 -7 -3 -11 -8 -10 -4 1 -54 -22
-112 -52 -58 -30 -108 -54 -112 -54 -3 -1 -10 -4 -14 -8 -4 -5 -17 -8 -28 -8
-16 0 -17 -3 -8 -9 10 -6 4 -10 -21 -15 -19 -4 -40 -13 -47 -21 -7 -8 -16 -12
-21 -10 -4 3 -7 -3 -6 -14 1 -14 5 -17 17 -12 8 5 105 8 215 7 l200 -1 0 -200
0 -200 -35 -16 c-22 -11 -37 -13 -41 -7 -4 7 -8 7 -10 0 -2 -6 -17 -14 -34
-17 -40 -8 -60 -13 -60 -15 0 -2 -13 -5 -51 -13 -11 -3 -44 -12 -73 -21 -30
-9 -57 -13 -62 -10 -5 3 -9 1 -9 -5 0 -6 -7 -8 -15 -5 -8 4 -15 2 -15 -3 0 -5
-6 -10 -12 -10 -14 -1 -34 -5 -108 -24 -25 -6 -52 -12 -60 -13 -8 -2 -16 -15
-18 -29 -4 -28 -3 -29 66 -29 22 0 32 -5 33 -17 5 -94 3 -822 -3 -839 -5 -15
-4 -21 2 -17 6 3 13 0 16 -8 6 -15 20 -17 40 -4 6 3 14 3 18 -1 11 -10 40 -9
48 3 5 7 10 7 15 0 10 -12 83 -13 102 -1 7 5 16 5 20 0 9 -13 41 -14 41 -2 0
7 5 7 13 0 7 -6 18 -7 27 -2 7 4 23 5 34 0 12 -4 31 -4 43 1 13 5 23 5 23 1 0
-8 227 -8 236 1 3 3 16 3 28 -1 18 -7 72 -8 86 -2 15 6 50 6 50 0 0 -8 60 -3
68 4 2 3 14 1 27 -4 14 -5 26 -5 34 3 6 6 11 7 11 1 0 -5 9 -10 20 -10 11 0
20 4 20 9 0 4 6 5 13 0 17 -11 41 -10 50 2 5 7 10 7 15 0 9 -12 82 -13 101 -1
7 5 16 5 20 0 9 -13 41 -14 41 -1 0 8 4 7 12 -1 7 -7 17 -8 30 -1 10 5 18 6
18 1 0 -10 54 -7 71 3 5 4 9 2 9 -3 0 -9 83 -7 100 3 5 3 10 3 10 -2 0 -9 71
-10 86 -1 5 4 16 3 23 -1 7 -5 21 -6 32 -4 15 4 17 14 15 59 -2 30 1 54 6 54
5 0 6 5 2 12 -12 18 -11 118 1 118 7 0 7 3 0 8 -12 8 -14 142 -2 142 4 0 5 5
1 11 -10 16 -11 189 -1 189 4 0 5 5 1 12 -10 16 -11 268 -1 268 4 0 3 8 -2 18
-7 13 -6 23 1 30 8 8 8 12 2 12 -6 0 -11 7 -11 15 0 8 5 15 11 15 7 0 7 3 1 8
-15 11 -17 32 -4 48 6 8 7 14 2 14 -5 0 -9 9 -10 20 -1 11 3 20 8 20 6 0 7 5
3 12 -12 19 -11 62 0 71 8 5 7 10 -2 16 -17 11 -17 21 0 32 7 5 9 9 3 9 -6 0
-10 30 -10 70 0 38 4 70 8 70 4 0 3 8 -2 18 -7 13 -6 23 1 30 8 8 8 12 2 12
-6 0 -11 7 -11 15 0 8 5 15 11 15 7 0 7 3 1 8 -12 8 -14 222 -2 222 4 0 3 8
-2 18 -7 13 -6 23 1 30 9 9 9 12 0 12 -14 0 -12 21 3 32 6 5 6 8 -2 8 -11 0
-12 24 -1 36 4 3 2 18 -3 32 -7 18 -6 28 3 34 7 4 9 8 3 8 -12 0 -15 70 -3 70
5 0 6 5 2 11 -3 6 -6 37 -6 69 0 32 3 63 6 69 4 6 3 11 -1 11 -9 0 -8 103 1
127 3 7 1 13 -3 13 -5 0 -7 13 -5 29 3 16 1 31 -3 33 -4 2 -51 -17 -103 -43z
m-25 -356 c0 -182 -1 -198 -18 -197 -9 1 -17 -2 -17 -6 0 -4 -20 -4 -45 0 -46
7 -61 0 -63 -30 -1 -8 -3 -27 -5 -42 -2 -16 0 -28 5 -28 6 0 7 -8 3 -17 -10
-27 -13 -63 -5 -63 4 0 6 -11 5 -25 -2 -14 1 -23 6 -19 5 3 9 1 9 -3 0 -5 14
-9 30 -8 17 0 30 4 30 8 0 5 6 5 13 0 6 -4 17 -8 22 -9 6 0 15 -2 21 -2 9 -2
13 -64 5 -93 0 -3 -25 -5 -53 -4 -68 1 -90 -4 -84 -21 3 -8 1 -14 -5 -14 -6 0
-6 -6 0 -18 7 -13 6 -23 -1 -30 -9 -9 -9 -12 1 -12 7 0 9 -5 6 -11 -11 -17
-12 -70 -2 -76 5 -3 4 -9 -3 -13 -9 -6 -6 -14 10 -30 12 -12 25 -18 29 -14 8
12 51 14 51 3 0 -5 5 -9 11 -9 5 0 8 4 5 9 -3 4 5 6 17 4 l23 -5 -1 -263 c0
-145 -4 -267 -8 -271 -4 -5 -35 -9 -68 -10 -66 -1 -83 -13 -69 -48 4 -12 4
-31 -1 -44 -6 -15 -5 -21 1 -17 6 3 10 2 10 -4 0 -5 -5 -13 -10 -16 -7 -5 -8
-11 -1 -19 6 -7 6 -17 1 -26 -5 -9 -5 -19 2 -27 7 -9 7 -13 -1 -13 -8 0 -9 -5
-1 -19 7 -14 7 -22 0 -26 -8 -5 -7 -11 1 -21 9 -11 9 -14 -1 -14 -9 0 -9 -4
-2 -13 7 -8 7 -18 2 -27 -5 -9 -5 -19 2 -27 6 -7 6 -13 1 -13 -4 0 -7 -18 -5
-40 2 -22 2 -50 -2 -63 -5 -22 -5 -22 -233 -22 -125 0 -234 -4 -240 -9 -8 -5
-13 -5 -13 1 0 13 -33 12 -42 -1 -5 -7 -8 -6 -8 3 0 11 -3 11 -15 1 -8 -7 -15
-9 -15 -4 0 5 -18 9 -40 9 -22 0 -40 -4 -40 -9 0 -5 -6 -5 -12 0 -7 5 -29 9
-48 9 -35 -1 -60 14 -60 34 0 6 -3 11 -7 11 -5 0 -8 46 -7 103 0 56 -4 110 -9
121 -5 10 -5 16 0 13 5 -3 8 147 8 340 0 190 3 347 7 349 8 5 3 38 -8 56 -5 7
-3 8 5 3 10 -5 11 -3 4 11 -10 23 -10 165 1 182 4 7 4 12 -1 12 -9 0 -10 200
-1 215 3 6 0 16 -8 23 -8 7 -14 9 -14 5 0 -4 -5 -2 -11 4 -8 8 -20 8 -35 3
-13 -5 -24 -6 -24 -1 0 5 -18 5 -40 1 -29 -5 -43 -4 -52 7 -6 8 -7 13 -2 12 5
-1 25 4 44 12 19 7 38 12 43 11 4 -1 7 3 7 9 0 6 7 9 15 5 8 -3 15 -2 15 3 0
9 141 73 150 69 3 -1 25 11 50 28 25 17 55 34 68 38 12 4 22 12 22 18 0 6 3 8
6 5 4 -4 31 7 60 23 30 16 54 28 54 26 0 -3 27 9 60 25 33 16 65 29 70 29 6 0
10 5 10 10 0 5 3 9 8 9 21 -4 42 2 38 10 -4 5 18 17 46 27 29 9 69 27 89 40
20 13 40 20 43 17 3 -4 6 -1 6 5 0 6 7 9 17 5 11 -4 14 -3 9 5 -4 7 -1 12 9
12 17 0 51 18 73 38 7 7 18 10 23 6 5 -3 16 2 25 10 8 9 23 16 32 16 16 0 17
-18 17 -197z m-1030 -1404 c0 -351 -2 -402 -16 -409 -17 -10 -38 -8 -56 3 -7
5 -13 5 -13 0 0 -4 -71 -8 -158 -8 -142 0 -157 2 -156 18 1 9 -2 15 -6 12 -4
-3 -7 22 -7 56 1 33 -1 63 -5 65 -4 3 -3 15 2 28 5 13 6 26 3 30 -7 7 -10 126
-3 126 3 0 6 9 6 20 0 11 -3 20 -7 20 -10 0 -5 64 6 72 7 5 7 8 0 8 -6 0 -9
18 -8 43 4 50 4 143 2 240 -2 42 21 52 116 52 47 0 85 3 85 7 0 4 23 6 50 4
28 -1 50 1 50 4 0 4 26 8 58 9 l57 1 0 -401z"/>
<path d="M1937 2954 c-2 -3 -18 -7 -33 -9 -16 -1 -28 -8 -26 -14 1 -6 -2 -11
-7 -11 -9 0 -8 -66 2 -76 5 -6 136 -9 199 -5 14 1 17 10 17 51 -1 28 -4 50 -8
51 -3 1 -18 2 -32 3 -14 2 -32 6 -39 11 -8 5 -11 4 -6 -3 7 -11 -31 -11 -51 1
-5 3 -13 4 -16 1z"/>
<path d="M2105 2800 l-90 -5 -3 -47 c-2 -34 1 -48 10 -49 57 -6 247 -4 261 3
13 7 15 13 7 28 -6 11 -6 21 -1 24 12 8 2 46 -13 47 -58 3 -94 3 -171 -1z"/>
<path d="M1869 2786 c-1 -21 -1 -63 0 -78 2 -20 101 -18 102 2 0 8 2 31 3 51
l2 36 -53 2 c-42 2 -53 -1 -54 -13z"/>
<path d="M1869 2634 c0 -13 -1 -39 -2 -56 l-1 -33 110 0 109 0 1 45 c0 25 -1
50 -3 55 -2 6 -49 11 -108 11 -104 2 -105 2 -106 -22z"/>
<path d="M2124 2648 c-4 -6 -4 -20 -4 -81 1 -23 1 -23 136 -23 118 1 137 3
145 19 6 9 7 17 3 17 -3 0 0 8 7 17 10 12 11 15 1 9 -9 -6 -11 -1 -8 18 3 16
0 26 -7 27 -59 4 -270 3 -273 -3z"/>
<path d="M2448 2643 c-5 -7 -7 -17 -3 -22 3 -6 1 -20 -6 -32 -8 -16 -8 -20 1
-14 7 4 10 1 8 -11 -3 -17 7 -19 136 -19 l140 0 1 48 c1 26 -3 51 -9 55 -20
12 -257 8 -268 -5z"/>
<path d="M1936 2513 c-3 -3 -19 -6 -36 -5 -32 1 -30 4 -34 -75 -1 -24 2 -27
37 -28 52 -1 62 8 62 53 0 37 -16 68 -29 55z"/>
<path d="M2010 2502 c-18 -22 -23 -42 -11 -42 4 0 8 -8 8 -17 0 -10 1 -23 2
-28 0 -7 49 -11 130 -11 112 0 130 2 140 18 6 9 7 20 2 23 -5 3 -7 14 -4 24 3
11 0 28 -6 38 -6 10 -11 14 -11 8 0 -10 -147 -12 -157 -2 -2 3 -17 2 -33 -3
-15 -4 -32 -4 -37 1 -5 5 -15 1 -23 -9z"/>
<path d="M2380 2509 c0 -3 -15 -5 -33 -3 l-34 4 0 -50 c-1 -30 4 -51 11 -51 6
-1 70 -2 142 -3 l131 -1 -2 53 c-1 29 -5 55 -9 59 -3 3 -6 1 -6 -7 0 -10 -3
-10 -15 0 -10 8 -15 9 -15 1 0 -7 -8 -8 -25 -1 -14 5 -25 6 -25 2 0 -4 -16 -7
-35 -7 -19 0 -35 2 -35 5 0 3 -11 5 -25 5 -14 0 -25 -3 -25 -6z"/>
<path d="M2646 2508 c3 -4 1 -8 -4 -8 -12 0 -10 -90 3 -91 5 -1 65 -2 133 -3
106 -1 125 1 139 16 9 10 12 18 6 18 -5 0 -8 16 -7 35 2 20 -1 33 -6 30 -5 -3
-11 -1 -14 4 -7 10 -25 9 -44 -3 -7 -4 -19 -3 -27 4 -9 8 -15 8 -20 0 -4 -6
-12 -7 -18 -3 -11 7 -34 9 -47 3 -12 -5 -70 -5 -70 0 0 4 -7 7 -15 7 -8 0 -12
-4 -9 -9z"/>
<path d="M2545 2371 c6 -11 1 -13 -32 -9 -52 7 -60 1 -60 -47 0 -46 11 -65 35
-59 35 8 102 11 102 4 0 -3 25 -3 55 0 36 4 55 2 55 -4 1 -28 25 34 25 66 1
29 -3 38 -19 42 -11 3 -25 1 -32 -5 -8 -7 -14 -7 -19 1 -3 6 -11 8 -16 4 -5
-3 -17 0 -26 8 -11 8 -14 8 -10 1 9 -15 -32 -14 -52 1 -12 9 -13 8 -6 -3z"/>
<path d="M1869 2343 c-1 -13 -1 -32 -1 -43 0 -49 0 -49 54 -45 31 2 59 -1 67
-8 11 -9 13 -9 8 -1 -5 8 4 12 26 12 68 -1 68 -1 64 42 -2 24 0 40 7 40 6 0 6
4 -2 12 -6 6 -53 12 -117 13 -104 2 -105 1 -106 -22z"/>
<path d="M2143 2357 c-2 -4 -9 -4 -15 -1 -7 5 -8 2 -3 -6 5 -8 8 -31 7 -51 -3
-43 2 -46 83 -43 33 1 66 -4 74 -10 12 -8 13 -8 7 2 -6 10 3 12 38 9 52 -4 69
3 71 30 0 10 5 25 10 32 6 10 4 12 -5 6 -8 -5 -11 -3 -8 6 3 8 0 18 -6 24 -13
12 -246 14 -253 2z"/>
<path d="M2763 2314 l0 -52 69 2 c39 0 72 -2 75 -7 2 -4 8 -5 12 -2 5 2 35 6
68 7 l59 2 -1 43 c0 23 -4 46 -9 50 -4 4 -67 8 -140 8 l-132 0 -1 -51z"/>
<path d="M3097 2349 c-3 -9 -1 -23 4 -30 4 -8 3 -16 -3 -20 -7 -4 -7 -12 0
-26 9 -17 22 -19 135 -18 69 0 129 3 133 7 8 8 12 97 4 99 -3 1 -64 2 -137 3
-115 1 -132 -1 -136 -15z"/>
<path d="M1880 2220 c0 -6 -4 -9 -8 -6 -4 2 -7 -16 -6 -41 2 -52 9 -59 58 -57
43 2 55 9 51 32 -2 9 -4 30 -4 45 -1 25 -4 27 -34 25 -18 -1 -38 2 -45 6 -7 4
-12 2 -12 -4z"/>
<path d="M2030 2218 c0 -5 -5 -6 -12 -2 -8 5 -9 0 -6 -14 4 -12 2 -22 -4 -22
-5 0 -6 -6 -1 -12 4 -7 6 -21 5 -30 -4 -20 -10 -19 138 -22 114 -2 143 2 134
15 -3 5 0 9 6 9 6 0 8 5 4 11 -4 7 -7 24 -6 39 0 15 -5 27 -11 28 -48 5 -147
6 -147 1 0 -3 -22 -3 -50 1 -27 4 -50 2 -50 -2z"/>
<path d="M2685 2220 c-38 -5 -40 -7 -40 -40 -1 -65 0 -65 137 -63 67 1 129 2
136 2 8 1 12 18 12 50 l0 50 -102 3 c-57 2 -121 1 -143 -2z"/>
<path d="M3030 2220 c0 -3 -14 -5 -31 -5 -30 0 -32 -2 -35 -40 -1 -22 1 -44 6
-50 6 -8 206 -12 259 -6 12 1 20 51 8 51 -5 0 -4 6 2 14 21 26 -19 43 -84 36
-30 -3 -58 -4 -60 -1 -7 6 -65 7 -65 1z"/>
<path d="M2330 2170 c0 -33 4 -50 13 -51 18 -2 250 1 264 3 13 2 13 38 0 38
-4 0 -5 5 -2 10 4 6 12 7 18 3 9 -5 9 -3 0 8 -6 8 -11 19 -10 24 1 6 -53 11
-140 13 l-143 3 0 -51z"/>
<path d="M3290 2167 l0 -53 36 3 c20 1 39 5 42 7 4 5 6 48 3 84 -1 7 -16 12
-41 12 l-40 0 0 -53z"/>
<path d="M1872 2061 c-5 -13 -6 -41 -3 -84 1 -9 27 -12 99 -11 53 1 102 2 108
3 8 1 12 70 5 101 0 3 -46 6 -102 6 -82 1 -102 -2 -107 -15z"/>
<path d="M2117 2068 c-9 -6 -9 -8 1 -8 9 0 10 -5 2 -19 -5 -11 -6 -22 -1 -25
4 -3 6 -16 4 -28 l-4 -23 135 0 c74 0 138 4 143 8 12 12 11 57 -1 57 -7 0 -7
3 -1 8 13 9 18 35 5 27 -5 -3 -10 -1 -10 4 0 11 -35 10 -46 -2 -4 -3 -12 -3
-18 0 -16 10 -194 11 -209 1z"/>
<path d="M2449 2071 c-6 -44 -4 -91 3 -91 5 0 6 -6 2 -12 -6 -9 -3 -9 9 0 9 8
22 10 29 6 17 -11 48 -13 42 -2 -7 10 -1 10 29 -1 13 -5 30 -5 37 -1 8 5 22 4
31 -1 12 -6 19 -5 22 4 3 9 7 9 17 0 9 -8 19 -9 36 -1 17 8 22 17 19 39 -2 16
-6 33 -10 39 -3 5 -1 10 6 10 7 0 9 3 5 8 -9 8 -276 11 -277 3z"/>
<path d="M2769 2073 c-1 -2 -2 -7 -3 -12 0 -5 -4 -12 -8 -16 -4 -4 -3 -17 2
-30 5 -13 6 -25 4 -28 -10 -9 30 -16 79 -14 27 2 50 0 53 -4 2 -4 19 -3 37 2
20 6 33 5 35 0 2 -6 13 -7 25 -2 12 4 28 6 36 3 8 -2 11 0 8 5 -3 5 -2 15 3
23 5 9 5 19 -1 26 -7 8 -6 14 1 19 7 4 6 10 -2 19 -9 8 -52 12 -140 12 -71 0
-129 -2 -129 -3z"/>
<path d="M1875 1933 c-11 -3 -12 -89 -2 -99 12 -13 68 -9 80 4 6 8 12 32 12
53 0 31 -3 38 -22 42 -12 2 -28 0 -35 -4 -7 -4 -15 -4 -18 0 -3 4 -10 6 -15 4z"/>
<path d="M2020 1929 c-14 -4 -20 -8 -15 -8 6 -1 3 -6 -5 -11 -9 -6 -10 -10 -3
-10 11 0 10 -30 -1 -49 -9 -14 18 -30 50 -29 17 1 37 -3 44 -7 7 -5 11 -4 7 1
-3 5 33 9 83 9 56 0 86 -4 82 -10 -3 -5 2 -4 11 4 9 7 14 18 10 25 -4 6 -8 27
-9 46 -2 51 -3 52 -16 44 -16 -10 -48 -13 -48 -4 0 4 -7 7 -15 7 -8 0 -15 -4
-15 -9 0 -5 -9 -4 -20 2 -13 7 -20 7 -20 1 0 -7 -8 -7 -22 -2 -13 5 -32 5 -43
1 -11 -4 -22 -4 -25 0 -3 3 -16 3 -30 -1z"/>
<path d="M2317 1932 c-10 -19 -8 -92 3 -92 6 0 9 -4 6 -9 -5 -7 21 -7 61 0 4
1 10 0 13 -1 18 -7 50 -5 50 3 0 6 5 6 13 1 15 -11 38 -11 55 -1 7 5 12 3 12
-3 0 -8 6 -8 20 0 14 7 20 7 20 0 0 -6 7 -6 19 2 11 7 17 17 13 23 -4 5 -7 23
-7 39 0 31 -31 51 -55 36 -7 -5 -24 -4 -36 0 -15 6 -26 5 -30 -1 -3 -5 -11 -6
-17 -2 -15 11 -68 10 -86 -1 -7 -5 -16 -5 -20 0 -8 12 -29 16 -34 6z"/>
<path d="M2660 1930 c-21 -5 -25 -12 -25 -46 0 -23 4 -45 10 -50 14 -12 45
-14 45 -2 0 5 6 6 13 1 14 -9 216 -13 215 -4 0 3 0 8 2 11 1 3 3 22 5 42 2 27
-2 39 -14 44 -22 10 -71 11 -99 2 -13 -5 -21 -5 -19 0 6 8 -78 6 -92 -2 -5 -4
-11 -2 -13 2 -1 5 -14 6 -28 2z"/>
<path d="M1875 1790 c-10 -17 -13 -81 -4 -100 5 -12 27 -15 101 -15 51 1 98 4
104 8 15 8 14 95 0 100 -6 2 -27 3 -46 2 -19 0 -38 4 -42 10 -5 6 -8 5 -8 -3
0 -9 -5 -10 -19 -3 -10 6 -21 8 -24 5 -10 -10 -42 -11 -48 -2 -4 6 -10 5 -14
-2z"/>
<path d="M2370 1792 c0 -4 -53 -7 -117 -7 l-118 0 0 -55 0 -54 123 -1 c68 0
129 3 135 7 18 11 15 81 -5 101 -10 9 -18 14 -18 9z"/>
<path d="M2491 1793 c-1 -7 -4 -12 -8 -12 -20 3 -31 -2 -37 -17 -3 -8 -2 -12
4 -9 13 8 13 3 0 -30 -7 -19 -7 -24 2 -19 8 5 9 2 4 -12 -4 -10 -4 -15 0 -11
4 4 13 2 21 -4 9 -9 13 -8 13 0 0 6 5 11 11 11 5 0 7 -6 3 -12 -5 -9 -2 -9 9
1 13 10 17 10 17 1 0 -10 3 -10 15 0 12 10 15 10 15 -1 0 -11 2 -11 9 0 8 12
12 12 25 2 13 -11 16 -11 16 0 0 12 2 12 9 0 7 -11 9 -11 14 0 5 12 7 12 15 0
6 -9 12 -10 16 -3 4 6 13 9 21 5 27 -10 47 4 36 26 -6 10 -7 21 -4 25 10 10
11 46 1 40 -4 -3 -8 0 -8 7 0 6 -8 9 -20 6 -10 -3 -21 0 -24 7 -3 7 -5 7 -5
-2 -1 -9 -6 -10 -20 -2 -12 6 -22 6 -26 1 -7 -13 -45 -10 -45 4 0 5 -4 4 -9
-4 -6 -9 -11 -10 -15 -2 -5 8 -13 8 -26 1 -13 -7 -20 -6 -23 3 -4 9 -6 9 -6 0z"/>
<path d="M2960 1791 c-14 -4 -63 -6 -110 -6 l-85 1 1 -45 c1 -26 3 -48 4 -51
1 -3 2 -9 1 -13 -1 -5 3 -6 9 -2 13 8 165 9 178 1 6 -3 14 -1 18 5 4 8 9 7 15
-2 7 -11 9 -11 9 -1 0 10 5 10 23 1 12 -6 19 -8 15 -4 -4 4 -3 18 2 31 7 16 6
24 -1 24 -8 0 -7 5 1 15 9 11 9 15 1 15 -7 0 -10 4 -7 9 9 13 -45 29 -74 22z"/>
<path d="M1950 1643 c0 -5 -19 -7 -43 -7 l-43 2 1 -49 c0 -29 5 -51 13 -54 6
-2 12 -1 12 3 0 4 17 6 39 4 35 -3 39 -1 43 22 3 15 1 26 -6 26 -6 0 -5 4 3 9
10 7 11 13 2 30 -12 21 -21 27 -21 14z"/>
<path d="M2036 1642 c-24 -3 -27 -7 -23 -28 2 -14 -1 -24 -7 -24 -6 0 -4 -5 4
-10 13 -9 13 -11 0 -20 -13 -8 -12 -10 3 -10 9 0 17 -3 17 -7 0 -5 14 -8 30
-8 17 0 30 3 30 7 0 4 11 3 25 -2 18 -7 25 -6 25 3 0 7 3 8 8 2 4 -5 21 -10
37 -10 17 0 33 5 37 10 5 6 8 4 8 -5 0 -13 1 -13 10 0 7 11 10 11 10 2 0 -10
5 -10 21 -2 11 7 18 17 16 25 -3 7 0 18 6 25 8 8 8 11 1 7 -7 -4 -9 2 -6 18 3
17 0 25 -9 25 -119 5 -186 3 -182 -3 3 -5 -3 -5 -13 0 -11 5 -32 7 -48 5z"/>
<path d="M2335 1636 c-10 -7 -16 -20 -12 -28 3 -9 0 -21 -6 -27 -8 -8 -8 -11
1 -11 6 0 9 -7 5 -16 -5 -14 0 -16 30 -12 21 2 37 2 37 -2 0 -3 43 -5 95 -5
57 0 95 4 95 10 0 6 5 3 10 -5 11 -17 10 -21 15 56 3 40 2 42 -26 46 -16 3
-29 1 -29 -4 0 -5 -4 -6 -10 -3 -15 10 -164 10 -179 0 -10 -5 -12 -4 -7 3 9
16 4 15 -19 -2z"/>
<path d="M2663 1637 c-2 -4 -8 -5 -13 -2 -5 3 -7 -3 -5 -15 2 -11 -1 -22 -6
-26 -6 -4 -7 -10 0 -17 5 -7 10 -16 10 -22 2 -15 49 -25 55 -12 2 7 5 8 5 2 1
-8 88 -12 111 -5 3 1 28 1 56 0 29 -1 55 3 59 9 3 6 1 11 -5 11 -6 0 -8 5 -4
12 8 13 12 67 4 66 -3 0 -7 0 -10 1 -22 8 -90 5 -90 -3 0 -7 -3 -8 -8 -1 -8
12 -152 14 -159 2z"/>
<path d="M2454 1492 c-11 -17 -11 -82 -1 -99 7 -11 43 -11 53 -1 3 4 18 2 32
-3 18 -7 27 -6 32 2 5 7 10 7 14 1 5 -8 39 -9 71 -2 6 1 12 1 15 0 16 -6 48
-5 44 2 -3 4 -1 8 5 8 10 0 9 46 -2 57 -4 3 -2 12 3 18 16 19 -2 22 -130 21
-63 -1 -117 2 -120 6 -3 4 -11 -1 -16 -10z"/>
<path d="M2971 1505 c-1 -6 -43 -10 -106 -9 -84 1 -105 -2 -101 -12 3 -7 1
-16 -5 -20 -6 -3 -6 -11 -1 -17 4 -7 7 -22 6 -34 0 -12 2 -20 7 -18 4 3 11 0
15 -6 4 -8 9 -7 15 2 5 8 9 10 9 4 0 -16 204 -12 224 4 8 7 13 18 9 25 -11 17
-12 36 -3 36 4 0 6 9 3 19 -3 12 -11 17 -19 14 -8 -3 -14 0 -14 7 0 10 -3 10
-14 1 -11 -9 -15 -9 -19 1 -3 7 -6 9 -6 3z"/>
<path d="M1874 1493 c-10 -3 -11 -84 0 -101 3 -5 177 -8 207 -3 4 1 4 79 0
102 -1 6 -189 8 -207 2z"/>
<path d="M2120 1485 c-5 -6 -5 -17 0 -25 5 -9 5 -19 -1 -26 -7 -8 -6 -14 1
-19 6 -3 8 -11 5 -16 -7 -11 -17 -10 138 -12 78 -1 131 2 135 8 12 19 12 46 0
39 -7 -5 -8 -3 -3 7 11 16 14 49 6 50 -36 8 -274 2 -281 -6z"/>
<path d="M1869 1353 c0 -2 -1 -19 -1 -38 0 -66 1 -68 22 -62 11 3 20 1 20 -3
0 -5 12 -5 28 1 23 8 27 15 28 46 1 44 -15 65 -39 51 -9 -5 -17 -5 -17 -1 0 8
-39 13 -41 6z"/>
<path d="M2009 1338 c-6 -10 -7 -23 -4 -28 3 -6 0 -10 -7 -10 -8 0 -9 -3 -3
-8 6 -4 10 -13 11 -19 2 -29 5 -32 32 -29 15 1 35 -1 44 -6 10 -5 19 -4 24 3
4 8 9 7 15 -2 5 -8 9 -9 9 -3 0 6 22 9 58 8 31 -2 64 -1 72 2 20 5 23 101 3
108 -7 3 -13 1 -13 -4 0 -6 -9 -6 -25 0 -18 7 -25 6 -25 -3 0 -7 -3 -8 -8 -2
-4 6 -14 10 -22 10 -8 0 -18 -4 -22 -10 -5 -7 -8 -6 -8 0 0 14 -40 14 -40 0 0
-6 -3 -7 -8 0 -13 18 -72 13 -83 -7z"/>
<path d="M2320 1346 c-6 -8 -10 -34 -8 -57 l3 -43 45 -1 c25 0 50 -4 57 -8 6
-4 14 -4 17 1 3 5 37 8 76 7 76 -3 82 1 85 49 3 47 -11 67 -38 57 -14 -6 -30
-5 -41 1 -11 6 -21 6 -31 -2 -9 -8 -15 -8 -20 0 -5 8 -11 8 -19 1 -7 -6 -15
-8 -19 -5 -9 10 -57 12 -57 2 0 -5 -9 -4 -19 1 -14 8 -22 7 -31 -3z"/>
<path d="M2647 1348 c-15 -9 -17 -58 -3 -58 7 0 7 -3 1 -8 -24 -17 -13 -30 25
-28 22 0 40 -3 40 -7 0 -4 9 -3 20 3 11 6 20 7 20 2 0 -5 7 -9 15 -9 8 0 15 4
15 8 0 4 14 4 30 -1 21 -6 30 -5 30 3 0 8 3 8 11 0 10 -10 58 -6 60 6 5 37 4
73 -2 83 -9 14 -168 19 -186 5 -7 -5 -13 -6 -13 -1 0 11 -47 12 -63 2z"/>
<path d="M1908 1209 c-15 -4 -29 -4 -32 -1 -10 10 -11 -80 -2 -105 5 -12 9
-13 21 -3 8 7 15 9 15 4 0 -10 152 -10 168 0 5 3 9 27 9 53 l-2 48 -37 -1
c-21 0 -38 4 -38 10 0 6 -4 6 -11 -1 -7 -7 -22 -8 -38 -4 -14 4 -38 4 -53 0z"/>
<path d="M2303 1213 c4 -6 -27 -9 -81 -9 l-87 1 -1 -55 c-1 -48 1 -56 17 -56
11 0 19 4 19 9 0 4 4 6 9 2 15 -9 105 -10 119 -2 6 5 12 5 12 0 0 -6 41 -8 81
-4 12 2 17 41 6 41 -6 0 -2 7 9 16 10 8 14 13 7 10 -7 -4 -13 3 -15 16 -2 19
-9 23 -38 23 -19 0 -41 4 -49 9 -9 6 -12 5 -8 -1z"/>
<path d="M2590 1213 c0 -5 -29 -8 -65 -7 -73 1 -81 -5 -80 -66 0 -30 4 -35 33
-41 17 -4 32 -3 32 2 0 4 14 4 30 -1 17 -5 30 -5 30 0 0 4 15 5 33 1 17 -3 52
-4 77 -1 37 4 45 9 45 25 0 11 -4 23 -10 27 -6 5 -6 8 1 8 7 0 9 11 6 26 -4
21 -9 25 -29 19 -17 -4 -23 -2 -18 6 5 8 1 7 -15 -1 -18 -10 -24 -9 -31 1 -7
12 -9 12 -9 0 0 -11 -3 -11 -15 -1 -8 7 -15 8 -15 3z"/>
<path d="M2860 1210 c-14 -3 -41 -5 -61 -4 l-36 1 2 -46 c2 -25 3 -50 4 -56 0
-6 33 -10 73 -10 40 0 76 5 80 10 5 7 8 7 8 0 0 -6 19 -10 43 -8 23 1 50 2 61
2 15 1 16 4 6 16 -10 12 -10 15 0 15 10 0 10 3 0 15 -7 9 -8 15 -2 15 7 0 7 9
0 28 -10 27 -14 28 -50 22 -21 -4 -38 -4 -38 1 0 4 -13 4 -29 -1 -17 -4 -31
-5 -33 -1 -2 4 -14 5 -28 1z"/>
<path d="M1876 1061 c2 -2 -1 -10 -7 -18 -9 -10 -8 -13 2 -13 10 0 11 -2 2 -8
-6 -4 -9 -19 -6 -35 5 -24 9 -27 47 -27 22 0 46 4 51 8 9 6 12 65 5 82 -1 3
-2 7 -2 10 0 3 -21 5 -48 5 -27 0 -46 -2 -44 -4z"/>
<path d="M2013 1024 c0 -22 -3 -46 -7 -52 -9 -16 3 -20 57 -17 29 1 47 -2 47
-9 0 -7 3 -8 8 -1 8 12 22 13 40 2 7 -5 12 -4 12 2 0 13 22 10 32 -4 5 -6 8
-6 8 2 0 7 14 10 38 8 l38 -3 1 54 c0 43 -3 54 -16 55 -9 0 -24 2 -33 4 -10 2
-18 -2 -18 -8 0 -8 -3 -8 -8 -2 -4 6 -50 10 -103 10 l-97 0 1 -41z"/>
<path d="M2321 1053 c-9 -10 -9 -13 1 -13 9 0 9 -3 0 -12 -8 -8 -8 -16 0 -32
6 -12 9 -23 7 -26 -2 -3 59 -6 136 -8 l140 -3 1 51 c0 27 -2 50 -5 51 -50 5
-101 2 -101 -6 0 -7 -3 -7 -8 0 -11 15 -157 13 -171 -2z"/>
<path d="M2646 1060 c-2 -3 -3 -25 -2 -50 l1 -45 125 -3 c69 -1 135 0 147 3
23 5 27 24 8 37 -6 5 -6 8 1 8 11 0 12 35 1 46 -7 7 -278 11 -281 4z"/>
<path d="M1950 920 c0 -3 -19 -5 -42 -5 l-41 0 -1 -43 c-1 -24 2 -48 5 -54 8
-13 148 -16 153 -3 3 6 5 5 5 -2 1 -7 10 -9 28 -4 25 7 28 12 29 49 0 23 -2
46 -5 51 -6 9 -131 20 -131 11z"/>
<path d="M2670 922 c0 -4 -49 -6 -110 -4 -73 2 -110 0 -110 -7 0 -19 -2 -26
-11 -42 -4 -9 -5 -20 -1 -24 4 -3 7 -12 7 -18 1 -7 6 -11 13 -10 7 2 12 -2 12
-8 0 -7 7 -8 18 -4 20 8 84 11 98 4 5 -3 25 -4 44 -2 19 2 48 4 65 6 28 2 29
4 30 49 0 43 -3 49 -27 57 -16 6 -28 7 -28 3z"/>
<path d="M2780 917 c0 -4 -4 -6 -9 -3 -12 8 -11 -86 2 -102 7 -9 13 -9 22 -2
9 7 15 8 19 1 5 -7 15 -7 31 -1 14 5 25 6 25 1 0 -4 7 -8 15 -8 8 0 15 5 15
11 0 7 3 7 8 1 4 -5 25 -10 47 -10 22 0 43 5 47 10 5 6 8 5 8 -4 0 -11 3 -11
15 -1 9 7 14 19 11 27 -3 7 0 13 7 13 9 0 8 3 -1 9 -16 10 -17 21 -3 30 6 4 6
12 2 20 -10 15 -121 22 -121 7 0 -5 -7 -3 -15 4 -8 7 -15 8 -15 3 0 -5 -24 -6
-55 -3 -30 3 -55 2 -55 -3z"/>
<path d="M2130 907 c0 -5 -4 -6 -9 -2 -6 3 -6 -6 -1 -24 4 -16 4 -33 -1 -38
-4 -4 -4 -14 0 -22 7 -10 40 -14 137 -15 132 -2 164 5 143 30 -6 8 -7 14 -2
14 7 0 10 35 4 61 -2 9 -31 6 -31 -3 0 -5 -5 -6 -12 -2 -16 10 -228 11 -228 1z"/>
<path d="M3177 784 c-4 -4 -52 -7 -107 -7 -64 0 -103 -4 -108 -11 -11 -17 -9
-81 3 -92 14 -12 250 -12 261 1 12 13 11 38 -1 47 -6 5 -6 8 1 8 6 0 9 10 7
24 -3 15 -11 23 -21 21 -10 -1 -20 2 -23 7 -3 4 -8 5 -12 2z"/>
<path d="M1872 761 c-8 -18 -8 -61 1 -83 5 -15 71 -18 85 -3 8 8 10 95 2 96
-40 8 -82 3 -88 -10z"/>
<path d="M2002 764 c-7 -7 -8 -15 -4 -18 5 -3 7 -19 6 -35 -1 -17 3 -34 9 -38
18 -11 107 -9 107 2 0 6 3 6 8 -1 5 -8 97 -11 144 -5 4 1 5 10 3 21 -2 11 0
22 6 25 5 4 5 13 0 23 -5 9 -11 21 -13 27 -5 15 -252 14 -266 -1z"/>
<path d="M2311 763 c-6 -7 -8 -13 -3 -13 5 0 6 -18 2 -40 -4 -23 -5 -39 -3
-36 3 3 16 1 29 -4 16 -6 24 -6 24 1 0 6 7 6 18 2 13 -7 166 -9 210 -4 11 1 9
101 -3 102 -5 1 -67 2 -136 3 -90 1 -129 -2 -138 -11z"/>
<path d="M2639 770 c-7 -31 -3 -88 5 -95 14 -13 248 -13 262 0 12 10 11 81 0
93 -8 8 -265 10 -267 2z"/>
</g>
</svg>
